<?xml version="1.0" encoding="UTF-8" standalone="no"?>
<!DOCTYPE svg PUBLIC "-//W3C//DTD SVG 1.1//EN" "http://www.w3.org/Graphics/SVG/1.1/DTD/svg11.dtd">
<svg version="1.1" xmlns="http://www.w3.org/2000/svg" xmlns:xlink="http://www.w3.org/1999/xlink" preserveAspectRatio="xMidYMid meet" viewBox="142.2653301941878 168.99999999999997 267.1507537218962 139.57692307692324" width="263.15" height="135.58"><defs><path d="M199.2 197.12C199.2 212.08 187.92 224.23 174.03 224.23C160.14 224.23 148.87 212.08 148.87 197.12C148.87 182.15 160.14 170 174.03 170C187.92 170 199.2 182.15 199.2 197.12Z" id="d7IY4jWbti"></path><radialGradient id="gradienta3oNZLO0i" gradientUnits="userSpaceOnUse" cx="174.03" cy="197.12" dx="132.09" dy="197.12" r="41.94"><stop style="stop-color: #a7e4ff;stop-opacity: 1" offset="0%"></stop><stop style="stop-color: #ffffff;stop-opacity: 1" offset="100%"></stop></radialGradient><path d="M400.52 197.12C400.52 212.08 389.24 224.23 375.36 224.23C361.47 224.23 350.19 212.08 350.19 197.12C350.19 182.15 361.47 170 375.36 170C389.24 170 400.52 182.15 400.52 197.12Z" id="b1EryjsVCz"></path><radialGradient id="gradientc5lzpNNS2f" gradientUnits="userSpaceOnUse" cx="375.36" cy="197.12" dx="333.41" dy="197.12" r="41.94"><stop style="stop-color: #a7e4ff;stop-opacity: 1" offset="0%"></stop><stop style="stop-color: #ffffff;stop-opacity: 1" offset="100%"></stop></radialGradient><path d="M174.03 170L174.03 197.12L375.36 197.12L375.36 170L174.03 170Z" id="c24igFKzrG"></path><linearGradient id="gradienta3IUzKY1lB" gradientUnits="userSpaceOnUse" x1="291.47" y1="151.92" x2="291.47" y2="197.12"><stop style="stop-color: #ffffff;stop-opacity: 1" offset="0%"></stop><stop style="stop-color: #a7e4ff;stop-opacity: 1" offset="100%"></stop></linearGradient><path d="M149 195L174.17 195L174.17 300L149 300L149 195Z" id="a2EAIjIai"></path><linearGradient id="gradientlIQyH1dY" gradientUnits="userSpaceOnUse" x1="132.22" y1="255.32" x2="174.17" y2="255.32"><stop style="stop-color: #ffffff;stop-opacity: 1" offset="0%"></stop><stop style="stop-color: #a7e4ff;stop-opacity: 1" offset="100%"></stop></linearGradient><path d="M400.17 195L375 195L375 300L400.17 300L400.17 195Z" id="bJjRMSi3"></path><linearGradient id="gradientb8Y3hRuOld" gradientUnits="userSpaceOnUse" x1="416.94" y1="255.32" x2="375" y2="255.32"><stop style="stop-color: #ffffff;stop-opacity: 1" offset="0%"></stop><stop style="stop-color: #a7e4ff;stop-opacity: 1" offset="100%"></stop></linearGradient><path d="M171.49 196.02L377.69 196.02L377.69 300L171.49 300L171.49 196.02Z" id="e9ZsWElJMy"></path><path d="M190.1 260C192.9 260 195.17 262.27 195.17 265.07C195.17 267.67 195.17 271.14 195.17 273.93C195.17 276.22 193.31 278.08 191.02 278.08C186.81 278.08 179.09 278.08 175.07 278.08C172.27 278.08 170 275.81 170 273.01C170 270.41 170 267.01 170 264.24C170 261.9 171.9 260 174.24 260C178.43 260 186.08 260 190.1 260Z" id="dheeWP3tm"></path><linearGradient id="gradienth2vSER3Ih" gradientUnits="userSpaceOnUse" x1="182.58" y1="260" x2="182.58" y2="278.08"><stop style="stop-color: #ffffff;stop-opacity: 1" offset="0%"></stop><stop style="stop-color: #010000;stop-opacity: 1" offset="100%"></stop></linearGradient><path d="M242.06 264.52C243.96 264.52 245.5 266.06 245.5 267.95C245.5 269.07 245.5 269 245.5 270.13C245.5 272.02 243.96 273.56 242.06 273.56C229.33 273.56 194.56 273.56 181.82 273.56C179.92 273.56 178.39 272.02 178.39 270.13C178.39 269 178.39 269.07 178.39 267.95C178.39 266.06 179.92 264.52 181.82 264.52C194.56 264.52 229.33 264.52 242.06 264.52Z" id="a4JC1NlDca"></path><linearGradient id="gradientao0q1EeDY" gradientUnits="userSpaceOnUse" x1="211.94" y1="264.52" x2="211.94" y2="273.56"><stop style="stop-color: #ffffff;stop-opacity: 1" offset="0%"></stop><stop style="stop-color: #010000;stop-opacity: 1" offset="100%"></stop></linearGradient><path d="M402.27 296.54C404.56 296.54 406.42 298.39 406.42 300.68C406.42 301.66 406.42 300.46 406.42 301.43C406.42 303.72 404.56 305.58 402.27 305.58C350.47 305.58 199.21 305.58 147.41 305.58C145.12 305.58 143.27 303.72 143.27 301.43C143.27 300.46 143.27 301.66 143.27 300.68C143.27 298.39 145.12 296.54 147.41 296.54C199.21 296.54 350.47 296.54 402.27 296.54Z" id="c5JLr4IRw"></path><linearGradient id="gradientemFbnLqN" gradientUnits="userSpaceOnUse" x1="274.84" y1="296.54" x2="274.84" y2="305.58"><stop style="stop-color: #ffffff;stop-opacity: 1" offset="0%"></stop><stop style="stop-color: #010000;stop-opacity: 1" offset="100%"></stop></linearGradient></defs><g><g><use xlink:href="#d7IY4jWbti" opacity="1" fill="url(#gradienta3oNZLO0i)"></use></g><g><use xlink:href="#b1EryjsVCz" opacity="1" fill="url(#gradientc5lzpNNS2f)"></use></g><g><use xlink:href="#c24igFKzrG" opacity="1" fill="url(#gradienta3IUzKY1lB)"></use></g><g><use xlink:href="#a2EAIjIai" opacity="1" fill="url(#gradientlIQyH1dY)"></use></g><g><use xlink:href="#bJjRMSi3" opacity="1" fill="url(#gradientb8Y3hRuOld)"></use></g><g><use xlink:href="#e9ZsWElJMy" opacity="1" fill="#a7e4ff" fill-opacity="1"></use></g><g><use xlink:href="#dheeWP3tm" opacity="1" fill="url(#gradienth2vSER3Ih)"></use></g><g><use xlink:href="#a4JC1NlDca" opacity="1" fill="url(#gradientao0q1EeDY)"></use></g><g><use xlink:href="#c5JLr4IRw" opacity="1" fill="url(#gradientemFbnLqN)"></use></g></g></svg>