<?xml version="1.0" encoding="UTF-8" standalone="no"?>
<!DOCTYPE svg PUBLIC "-//W3C//DTD SVG 1.1//EN" "http://www.w3.org/Graphics/SVG/1.1/DTD/svg11.dtd">
<svg version="1.1" xmlns="http://www.w3.org/2000/svg" xmlns:xlink="http://www.w3.org/1999/xlink" preserveAspectRatio="xMidYMid meet" viewBox="169 9 214 164" width="210" height="160"><defs><path d="M170 10L380 10L380 170L170 170L170 10Z" id="c16PU6vmu7"></path><clipPath id="clipi12YK7bxXI"><use xlink:href="#c16PU6vmu7" opacity="1"></use></clipPath><path d="M270 17.9L280 17.9L280 161.4L270 161.4L270 17.9Z" id="j7zIkZE2Di"></path><path d="M174.41 14.41L272.8 14.41L272.8 165.8L174.41 165.8L174.41 14.41Z" id="b3s4Gqe5Gb"></path><path d="M277.41 14.3L375.8 14.3L375.8 165.7L277.41 165.7L277.41 14.3Z" id="aKZa3zUr"></path><path d="M310 100C310 105.52 305.52 110 300 110C294.48 110 290 105.52 290 100C290 94.48 294.48 90 300 90C305.52 90 310 94.48 310 100Z" id="bH21GkX5q"></path><radialGradient id="gradientb3Ods3qkYp" gradientUnits="userSpaceOnUse" cx="300" cy="100" dx="300" dy="115.1" r="15.1"><stop style="stop-color: #ffffff;stop-opacity: 1" offset="0%"></stop><stop style="stop-color: #010000;stop-opacity: 1" offset="100%"></stop></radialGradient><path d="M260 100C260 105.52 255.52 110 250 110C244.48 110 240 105.52 240 100C240 94.48 244.48 90 250 90C255.52 90 260 94.48 260 100Z" id="daMVpFstM"></path><radialGradient id="gradientfv0YOdQ0i" gradientUnits="userSpaceOnUse" cx="250" cy="100" dx="250" dy="115.1" r="15.1"><stop style="stop-color: #ffffff;stop-opacity: 1" offset="0%"></stop><stop style="stop-color: #010000;stop-opacity: 1" offset="100%"></stop></radialGradient></defs><g><g><use xlink:href="#c16PU6vmu7" opacity="1" fill="#473122" fill-opacity="1"></use><g clip-path="url(#clipi12YK7bxXI)"><use xlink:href="#c16PU6vmu7" opacity="1" fill-opacity="0" stroke="#896044" stroke-width="20" stroke-opacity="1"></use></g></g><g><use xlink:href="#j7zIkZE2Di" opacity="1" fill="#896044" fill-opacity="1"></use></g><g><use xlink:href="#b3s4Gqe5Gb" opacity="1" fill="#473122" fill-opacity="1"></use></g><g><use xlink:href="#aKZa3zUr" opacity="1" fill="#473122" fill-opacity="1"></use></g><g><use xlink:href="#bH21GkX5q" opacity="1" fill="url(#gradientb3Ods3qkYp)"></use></g><g><use xlink:href="#daMVpFstM" opacity="1" fill="url(#gradientfv0YOdQ0i)"></use></g></g></svg>